<svg width="244" height="250" viewBox="0 0 244 250" fill="none" xmlns="http://www.w3.org/2000/svg">
<path d="M22.6644 65.9453C33.3523 51.4003 47.305 39.5672 63.4001 31.3979C79.4951 23.2286 97.2829 18.9512 115.332 18.91L115.407 51.7499C102.498 51.7794 89.7753 54.8387 78.2636 60.6817C66.7518 66.5247 56.7723 74.9882 49.128 85.3912L22.6644 65.9453Z" fill="#B39393"/>
<path d="M65.9662 48.535C65.6661 42.6423 72.1894 38.9274 76.9186 42.2979L166.506 106.146C170.677 109.119 170.31 115.539 165.824 118.094L81.9217 165.875C77.435 168.43 71.9162 165.361 71.6515 160.164L65.9662 48.535Z" fill="#575B63"/>
<path d="M174.909 98.903C180.235 96.0841 186.631 100.144 186.535 106.283L185.183 193.132C185.086 199.386 178.35 203.093 173.119 199.772L99.1266 152.802C93.8953 149.481 94.14 141.654 99.565 138.783L174.909 98.903Z" fill="#898778"/>
<path d="M38.6784 214.951L162.772 238.319L185.334 176.352L29.0088 114.226L38.6784 214.951Z" fill="#453F3F"/>
<path d="M230.647 134.277C230.647 152.554 226.303 170.569 217.973 186.837C209.643 203.105 197.566 217.161 182.737 227.845C167.908 238.529 150.752 245.535 132.684 248.286C114.615 251.038 96.1514 249.455 78.8146 243.669C61.4778 237.883 45.7645 228.059 32.9701 215.007C20.1756 201.956 10.6665 186.05 5.22661 168.602C-0.213273 151.153 -1.42813 132.662 1.6822 114.651C4.79253 96.641 12.139 79.628 23.1159 65.0146L49.3733 84.738C41.5222 95.19 36.2678 107.358 34.0432 120.24C31.8186 133.122 32.6875 146.347 36.5783 158.827C40.4691 171.307 47.2703 182.683 56.4214 192.018C65.5724 201.353 76.8111 208.38 89.211 212.518C101.611 216.656 114.817 217.788 127.74 215.821C140.663 213.853 152.934 208.841 163.54 201.2C174.146 193.558 182.784 183.505 188.742 171.87C194.7 160.234 197.807 147.349 197.807 134.277H230.647Z" fill="#3D3535"/>
<path d="M115.324 18.9534C130.468 18.9534 145.464 21.9363 159.456 27.7319C173.448 33.5274 186.161 42.0221 196.87 52.7309C207.578 63.4396 216.073 76.1528 221.869 90.1445C227.664 104.136 230.647 119.132 230.647 134.277L211.856 134.277C211.856 121.6 209.359 109.047 204.508 97.3357C199.656 85.6239 192.546 74.9822 183.582 66.0184C174.618 57.0546 163.977 49.9441 152.265 45.0929C140.553 40.2417 128 37.7448 115.324 37.7448L115.324 18.9534Z" fill="white"/>
<path d="M115.324 18.9534C130.468 18.9534 145.464 21.9363 159.456 27.7319C173.448 33.5274 186.161 42.0221 196.87 52.7309C207.578 63.4396 216.073 76.1528 221.869 90.1445C227.664 104.136 230.647 119.132 230.647 134.277L211.856 134.277C211.856 121.6 209.359 109.047 204.508 97.3357C199.656 85.6239 192.546 74.9822 183.582 66.0184C174.618 57.0546 163.977 49.9441 152.265 45.0929C140.553 40.2417 128 37.7448 115.324 37.7448L115.324 18.9534Z" fill="#964D4D"/>
</svg>
